# xmcd CD database file
#
# Track frame offsets:
#	150
#	15582
#	31264
#	50201
#	68795
#	82300
#	103077
#	116291
#	129591
#	149633
#	166797
#	182222
#	193486
#	211063
#
# Disc length: 2991 seconds
#
# Revision: 1
# Processed by: cddbd v1.5.1PL2 Copyright (c) Steve Scherf et al.
# Submitted via: CDex 1.51
#
DISCID=d00bad0e
DTITLE=Washington Dead Cats - Treat Me Bad
DYEAR=2003
DGENRE=Surf Rock
TTITLE0=Crazy When I Hear That Beat
TTITLE1=Waikiki Bay
TTITLE2=Do the Tiki Rock
TTITLE3=Le Diable en Personne
TTITLE4=Devil in High Heels
TTITLE5=Mexican Wrestler
TTITLE6=Devil's Claws
TTITLE7=Number Six
TTITLE8=Aloha from Ligres Beach
TTITLE9=Do the Mambo !
TTITLE10=Juju (Wowow)
TTITLE11=Under the Coconut Trees
TTITLE12=El Señor Igor
TTITLE13=Blue Surfin' Girl
EXTD=YEAR: 2003
EXTT0=
EXTT1=
EXTT2=
EXTT3=
EXTT4=
EXTT5=
EXTT6=
EXTT7=
EXTT8=
EXTT9=
EXTT10=
EXTT11=
EXTT12=
EXTT13=
PLAYORDER=
